<svg xmlns="http://www.w3.org/2000/svg" xmlns:xlink="http://www.w3.org/1999/xlink" fill="none" version="1.1" width="130.14393615722656" height="120" viewBox="0 0 130.14393615722656 120"><g style="mix-blend-mode:passthrough"><g><g style="mix-blend-mode:passthrough"><path d="M113.843,4.00871L129.094,31.6195C130.692,34.5098,130.445,38.1264,128.498,40.7262L71.0838,116.95C69.5442,118.983,67.322,120,65.0853,120C62.8485,120,60.6118,118.983,59.0867,116.95L1.67204,40.7262C-0.303266,38.1264,-0.550179,34.4953,1.0475,31.6195L16.298,4.00871C17.6633,1.52505,20.176,0,22.9066,0L107.235,0C109.951,0,112.478,1.52505,113.843,4.00871ZM65.4919,112.767L122.907,36.5432C123.226,36.122,123.255,35.4684,122.979,34.9891L107.729,7.37836C107.569,7.1024,107.366,6.97168,107.22,6.97168L22.9066,6.97168C22.7613,6.97168,22.558,7.08787,22.3982,7.37836L7.14766,34.9891C6.88622,35.4684,6.91527,36.122,7.23481,36.5432L64.6495,112.767C64.8528,113.043,65.0126,113.043,65.0707,113.043C65.1288,113.043,65.2885,113.043,65.4919,112.767Z" fill-rule="evenodd" fill="#FCE428" fill-opacity="1"/></g><g style="mix-blend-mode:passthrough"><path d="M98.76715443725585,28.758169174194336L31.37429443725586,28.758169174194336C29.442554437255858,28.758169174194336,27.88845443725586,30.312269174194334,27.88845443725586,32.24400917419434C27.88845443725586,34.175739174194334,29.442554437255858,35.729849174194335,31.37429443725586,35.729849174194335L98.76715443725585,35.729849174194335C100.69895443725586,35.729849174194335,102.25305443725586,34.175739174194334,102.25305443725586,32.24400917419434C102.25305443725586,30.312269174194334,100.69895443725586,28.758169174194336,98.76715443725585,28.758169174194336Z" fill="#FCE428" fill-opacity="1"/></g></g></g></svg>