<svg xmlns="http://www.w3.org/2000/svg" xmlns:xlink="http://www.w3.org/1999/xlink" fill="none" version="1.1" width="113.41714477539062" height="120" viewBox="0 0 113.41714477539062 120"><g style="mix-blend-mode:passthrough"><g><g style="mix-blend-mode:passthrough"><path d="M60.7371,14.7086L88.4486,14.7086L69.6857,53.9829L69.7971,54.1886L74.1429,54.1886L91.62,17.6143L108.909,54.1886L113.417,54.1886L94.7571,14.7086L94.7657,14.7086L94.7657,10.4914L63.8829,10.4914L63.8829,7.79143C63.8829,3.49714,60.3857,0,56.0914,0C51.7886,0,48.3,3.49714,48.3,7.79143L48.3,10.4829L18.36,10.4829L18.36,14.7L18.7714,14.7L0,53.9829L0.111429,54.1886L4.45714,54.1886L21.9343,17.6143L39.2229,54.1886L43.7314,54.1886L25.08,14.7086L51.1971,14.7086L51.1971,105.789L18.3686,115.637L18.3686,120L94.7657,120L94.7657,115.637L60.7371,105.789L60.7371,14.7086Z" fill="#FCE428" fill-opacity="1"/></g><g style="mix-blend-mode:passthrough"><path d="M43.7399714282468,59.99999815454102C43.7399714282468,59.75142715454101,43.714271428246796,59.51142715454102,43.705671428246795,59.271427154541016L0.04285712824679613,59.271427154541016C0.03428572824679613,59.51142715454102,0.008571428246796131,59.75142715454101,0.008571428246796131,59.99999815454102C0.008571428246796131,72.07712715454102,9.797141428246796,81.87432715454102,21.874271428246796,81.87432715454102C33.9514714282468,81.87432715454102,43.7399714282468,72.07712715454102,43.7399714282468,59.99999815454102Z" fill="#FCE428" fill-opacity="1"/></g><g style="mix-blend-mode:passthrough"><path d="M69.72000042167969,59.271427154541016C69.71142902167969,59.51142715454102,69.68571472167969,59.75142715454101,69.68571472167969,59.99999815454102C69.68571472167969,72.07712715454102,79.48285472167969,81.87432715454102,91.55141472167969,81.87432715454102C103.6200147216797,81.87432715454102,113.4086147216797,72.07712715454102,113.4086147216797,59.99999815454102C113.4086147216797,59.75142715454101,113.3828147216797,59.51142715454102,113.3743147216797,59.271427154541016L69.72000042167969,59.271427154541016Z" fill="#FCE428" fill-opacity="1"/></g></g></g></svg>