<svg xmlns="http://www.w3.org/2000/svg" xmlns:xlink="http://www.w3.org/1999/xlink" fill="none" version="1.1" width="138.5640106201172" height="120" viewBox="0 0 138.5640106201172 120"><g style="mix-blend-mode:passthrough"><g><g style="mix-blend-mode:passthrough"><path d="M34.6412,0L103.923,0L138.564,60L103.923,120L34.641,120L0,60L34.6412,0ZM37.9742,114.227L100.59,114.227L131.897,60.0002L100.59,5.77357L37.9743,5.77357L6.6665,60L37.9742,114.227Z" fill-rule="evenodd" fill="#FCE428" fill-opacity="1"/></g><g style="mix-blend-mode:passthrough"><path d="M40.053358514404295,50.063812255859375L49.2586085144043,64.86021225585938L49.320308514404296,64.86021225585938L49.320308514404296,50.063812255859375L53.8612085144043,50.063812255859375L53.8612085144043,72.11931225585937L49.0116085144043,72.11931225585937L39.837188514404296,57.35387225585937L39.7754085144043,57.35387225585937L39.7754085144043,72.11931225585937L35.2345085144043,72.11931225585937L35.2345085144043,50.063812255859375L40.053358514404295,50.063812255859375ZM74.6194085144043,50.063812255859375L74.6194085144043,54.14125225585938L62.9738085144043,54.14125225585938L62.9738085144043,58.86750225585938L73.6618085144043,58.86750225585938L73.6618085144043,62.63621225585938L62.9738085144043,62.63621225585938L62.9738085144043,68.04191225585937L74.8665085144043,68.04191225585937L74.8665085144043,72.11951225585938L58.1241085144043,72.11951225585938L58.1241085144043,50.063812255859375L74.6194085144043,50.063812255859375ZM90.5897085144043,57.10673225585938L94.3272085144043,72.11931225585937L99.14610851440429,72.11931225585937L105.0770085144043,50.063812255859375L100.3200085144043,50.063812255859375L96.7058085144043,65.26181225585938L96.6441085144043,65.26181225585938L92.8754085144043,50.063812255859375L88.3346085144043,50.063812255859375L84.5042085144043,65.07641225585938L84.44240851440429,65.07641225585938L80.95180851440429,50.063812255859375L76.1022085144043,50.063812255859375L81.9402085144043,72.11931225585937L86.8518085144043,72.11931225585937L90.5278085144043,57.10673225585938L90.5897085144043,57.10673225585938Z" fill-rule="evenodd" fill="#FCE428" fill-opacity="1"/></g></g></g></svg>